<svg xmlns="http://www.w3.org/2000/svg" viewBox="0 0 1024 1024">
  <defs>
    <linearGradient id="bg" x1="155" y1="92" x2="856" y2="930" gradientUnits="userSpaceOnUse">
      <stop offset="0" stop-color="#23364f"/>
      <stop offset="0.45" stop-color="#121926"/>
      <stop offset="1" stop-color="#05080d"/>
    </linearGradient>
    <radialGradient id="glow" cx="672" cy="276" r="612" gradientUnits="userSpaceOnUse">
      <stop offset="0" stop-color="#4dd7ff" stop-opacity="0.48"/>
      <stop offset="0.42" stop-color="#4dd7ff" stop-opacity="0.12"/>
      <stop offset="1" stop-color="#4dd7ff" stop-opacity="0"/>
    </radialGradient>
    <linearGradient id="paper" x1="255" y1="204" x2="768" y2="833" gradientUnits="userSpaceOnUse">
      <stop offset="0" stop-color="#f9fbff"/>
      <stop offset="0.55" stop-color="#dce8f5"/>
      <stop offset="1" stop-color="#aab9ce"/>
    </linearGradient>
    <linearGradient id="fold" x1="617" y1="184" x2="786" y2="358" gradientUnits="userSpaceOnUse">
      <stop offset="0" stop-color="#ffffff"/>
      <stop offset="1" stop-color="#b7c8de"/>
    </linearGradient>
    <linearGradient id="terminal" x1="254" y1="450" x2="783" y2="760" gradientUnits="userSpaceOnUse">
      <stop offset="0" stop-color="#151e2c"/>
      <stop offset="1" stop-color="#070a10"/>
    </linearGradient>
    <filter id="shadow" x="-20%" y="-20%" width="140%" height="150%">
      <feDropShadow dx="0" dy="34" stdDeviation="34" flood-color="#000000" flood-opacity="0.42"/>
    </filter>
    <filter id="soft" x="-20%" y="-20%" width="140%" height="140%">
      <feGaussianBlur stdDeviation="12"/>
    </filter>
  </defs>

  <rect x="64" y="64" width="896" height="896" rx="210" fill="url(#bg)"/>
  <rect x="64" y="64" width="896" height="896" rx="210" fill="url(#glow)"/>
  <path d="M182 755C301 641 411 662 512 711c112 54 226 47 337-87v158c-83 100-201 142-343 91-106-38-205-24-324 80Z" fill="#101827" opacity="0.7"/>
  <circle cx="740" cy="248" r="132" fill="#28cdfa" opacity="0.15" filter="url(#soft)"/>

  <g filter="url(#shadow)">
    <path d="M260 150h368l164 164v522c0 37-30 67-67 67H260c-37 0-67-30-67-67V217c0-37 30-67 67-67Z" fill="url(#paper)"/>
    <path d="M628 150v132c0 38 31 69 69 69h95Z" fill="url(#fold)"/>
    <path d="M628 150v132c0 38 31 69 69 69h95" fill="none" stroke="#8aa2bd" stroke-width="10" stroke-linejoin="round" opacity="0.45"/>
  </g>

  <g transform="translate(246 410)">
    <rect width="532" height="318" rx="42" fill="url(#terminal)"/>
    <rect x="1.5" y="1.5" width="529" height="315" rx="40.5" fill="none" stroke="#4fd5ff" stroke-opacity="0.26" stroke-width="3"/>
    <circle cx="58" cy="54" r="14" fill="#ff4d5a"/>
    <circle cx="101" cy="54" r="14" fill="#ffd85a"/>
    <circle cx="144" cy="54" r="14" fill="#37d67a"/>

    <path d="M67 127 119 169 67 211" fill="none" stroke="#5ce6ff" stroke-width="23" stroke-linecap="round" stroke-linejoin="round"/>
    <rect x="153" y="198" width="159" height="22" rx="11" fill="#a8f3ff" opacity="0.94"/>
    <rect x="153" y="120" width="296" height="20" rx="10" fill="#edf8ff" opacity="0.8"/>
    <rect x="153" y="160" width="234" height="20" rx="10" fill="#ff5d6c" opacity="0.95"/>
    <rect x="345" y="198" width="98" height="22" rx="11" fill="#ffd85a" opacity="0.95"/>
    <rect x="67" y="250" width="365" height="17" rx="8.5" fill="#6b7f9a" opacity="0.55"/>
  </g>

  <g transform="translate(653 646)">
    <circle cx="88" cy="88" r="74" fill="#ff3048"/>
    <circle cx="88" cy="88" r="74" fill="none" stroke="#ffb1bb" stroke-opacity="0.55" stroke-width="8"/>
    <path d="M59 59 117 117M117 59 59 117" stroke="#ffffff" stroke-width="22" stroke-linecap="round"/>
  </g>

  <g transform="translate(654 250)">
    <circle cx="82" cy="82" r="57" fill="none" stroke="#63e6ff" stroke-width="24"/>
    <path d="M124 124 183 183" stroke="#63e6ff" stroke-width="30" stroke-linecap="round"/>
    <circle cx="82" cy="82" r="28" fill="#ffffff" opacity="0.22"/>
  </g>

  <path d="M275 247h190M275 302h268M275 357h206" stroke="#8197b2" stroke-width="22" stroke-linecap="round" opacity="0.7"/>
</svg>
